# xmcd CD Database Entry
#
# Track frame offsets:
# 150
# 18097
# 54635
#
# Disc length: 1001 seconds
#
# Revision: 1
# Processed by: cddbd v1.4PL0 Copyright (c) Steve Scherf et al.
# Submitted via: tcd 2.0b
#
DISCID=1a03e703
DTITLE=Kina - Girl From The Gutter (Promo Single)
DYEAR=1900
DGENRE=
TTITLE0=Girl From The Gutter (album version)
TTITLE1=Girl From The Gutter (matty's jungle gutter mix)
TTITLE2=Girl From The Gutter (soul mix)
EXTD=
EXTT0=
EXTT1=
EXTT2=
PLAYORDER=
